<svg width="136" height="136" viewBox="0 0 136 136" fill="none" xmlns="http://www.w3.org/2000/svg">
<path d="M15.6001 106.6H17.0001V109.7H20.6001V106.6H22.0001V114.4H20.6001V110.9H17.0001V114.4H15.6001V106.6Z" fill="#1A1A1A"/>
<path d="M24.3003 106.6H30.0003V107.8H25.7003V109.9H29.6003V111H25.7003V113.3H30.0003V114.5H24.3003V106.6Z" fill="#1A1A1A"/>
<path d="M33.8999 106.6H35.3999L38.3999 114.4H36.8999L36.1999 112.3H32.9999L32.2999 114.4H30.8999L33.8999 106.6ZM33.3999 111.3H35.7999L34.5999 107.9L33.3999 111.3Z" fill="#1A1A1A"/>
<path d="M39.6001 106.6H41.0001V113.2H45.0001V114.4H39.7001V106.6H39.6001Z" fill="#1A1A1A"/>
<path d="M44.4003 106.6H50.7003V107.8H48.2003V114.4H46.8003V107.8H44.3003V106.6H44.4003Z" fill="#1A1A1A"/>
<path d="M52.2002 106.6H53.6002V109.7H57.2002V106.6H58.6002V114.4H57.2002V110.9H53.6002V114.4H52.2002V106.6Z" fill="#1A1A1A"/>
<path d="M68.4002 113.6C67.8002 114.3 67.1002 114.6 66.2002 114.6C64.8002 114.6 63.7002 113.7 63.7002 112.3C63.7002 111.2 64.6002 110.5 65.5002 110C65.1002 109.5 64.7002 109 64.7002 108.3C64.7002 107.2 65.6002 106.4 66.6002 106.4C67.6002 106.4 68.6002 107 68.6002 108.3C68.6002 109.2 67.9002 109.9 67.2002 110.3L68.4002 111.8C68.5002 111.6 68.6002 111.3 68.6002 110.7H69.7002C69.6002 111.4 69.4002 112.1 69.1002 112.6L70.6002 114.4H69.1002L68.4002 113.6ZM66.2002 110.8C65.7002 111.1 65.0002 111.3 65.0002 112.3C65.0002 113.1 65.5002 113.6 66.3002 113.6C67.2002 113.6 67.5002 113 67.8002 112.7L66.2002 110.8ZM65.9002 108.2C65.9002 108.7 66.3002 109.1 66.6002 109.5C67.1002 109.2 67.5002 108.9 67.5002 108.2C67.5002 107.7 67.2002 107.3 66.7002 107.3C66.3002 107.4 65.9002 107.7 65.9002 108.2Z" fill="#1A1A1A"/>
<path d="M75.3003 106.6H79.1003C80.5003 106.6 81.4003 107.2 81.4003 108.5C81.4003 109.3 81.0003 109.9 80.3003 110.2C81.3003 110.4 81.8003 111.2 81.8003 112.2C81.8003 113.4 80.9003 114.4 78.9003 114.4H75.3003V106.6ZM76.7003 109.9H78.9003C79.6003 109.9 80.1003 109.5 80.1003 108.8C80.1003 108 79.7003 107.7 78.9003 107.7H76.7003V109.9ZM76.7003 113.3H79.1003C79.9003 113.3 80.4003 112.9 80.4003 112.1C80.4003 111.3 79.9003 110.9 79.1003 110.9H76.7003V113.3Z" fill="#1A1A1A"/>
<path d="M83.6 106.6H89.2V107.8H84.9V109.9H88.8V111H84.9V113.3H89.2V114.5H83.5V106.6H83.6Z" fill="#1A1A1A"/>
<path d="M93 106.6H94.5L97.5 114.4H96L95.3 112.3H92.2L91.5 114.4H90L93 106.6ZM92.5 111.3H94.9L93.7 107.9L92.5 111.3Z" fill="#1A1A1A"/>
<path d="M98.5 106.6H99.9V111.2C99.9 112.3 100 113.5 101.7 113.5C103.5 113.5 103.5 112.3 103.5 111.2V106.6H104.9V111.6C104.9 113.6 103.6 114.6 101.7 114.6C99.8 114.6 98.5 113.6 98.5 111.6V106.6Z" fill="#1A1A1A"/>
<path d="M106 106.6H112.3V107.8H109.8V114.4H108.4V107.8H106V106.6Z" fill="#1A1A1A"/>
<path d="M115.9 111.4L113 106.6H114.6L116.7 110.1L118.7 106.6H120.2L117.3 111.4V114.5H115.9V111.4V111.4Z" fill="#1A1A1A"/>
<path d="M85.4999 90.5999H36.8999V21.3999H45.2999V83.1999H82.2999L85.4999 90.5999Z" fill="#1A1A1A"/>
<path d="M92.3997 90.4999L79.0997 59.3999H60.5997V76.9999H52.1997V21.5999H77.1997C82.6997 21.5999 87.8997 22.2999 92.3997 25.6999C96.8997 29.0999 99.4997 34.6999 99.4997 40.2999C99.4997 48.1999 94.7997 55.2999 86.9997 57.3999L101.1 90.5999H92.3997V90.4999ZM76.2997 52.5999C80.7997 52.5999 84.4997 52.2999 87.7997 48.8999C90.0997 46.5999 91.1997 43.2999 91.1997 40.0999C91.1997 36.1999 89.6997 32.9999 86.4997 30.7999C83.5997 28.7999 80.7997 28.6999 77.2997 28.6999H60.5997V52.5999H76.2997V52.5999Z" fill="#1A1A1A"/>
</svg>